SplineFontDB: 3.0
FontName: January-Regular
FullName: January Regular
FamilyName: January
Weight: Regular
Copyright: Copyright 2018, Flora Canou
UComments: "2017-11-21: Created with FontForge (http://fontforge.org)"
Version: 0.8.0
ItalicAngle: 0
UnderlinePosition: -204
UnderlineWidth: 101
Ascent: 1457
Descent: 591
InvalidEm: 0
LayerCount: 3
Layer: 0 0 "Back" 1
Layer: 1 0 "Fore" 0
Layer: 2 0 "Back 2" 1
XUID: [1021 437 -1854233377 32630]
StyleMap: 0x0040
FSType: 0
OS2Version: 0
OS2_WeightWidthSlopeOnly: 0
OS2_UseTypoMetrics: 1
CreationTime: 1511268235
ModificationTime: 1532528286
PfmFamily: 33
TTFWeight: 400
TTFWidth: 5
LineGap: 184
VLineGap: 0
OS2TypoAscent: 0
OS2TypoAOffset: 1
OS2TypoDescent: 0
OS2TypoDOffset: 1
OS2TypoLinegap: 184
OS2WinAscent: 0
OS2WinAOffset: 1
OS2WinDescent: 0
OS2WinDOffset: 1
HheadAscent: 0
HheadAOffset: 1
HheadDescent: 0
HheadDOffset: 1
OS2FamilyClass: 2048
OS2Vendor: 'PfEd'
MarkAttachClasses: 1
DEI: 91125
LangName: 1033
DesignSize: 220
Encoding: UnicodeBmp
UnicodeInterp: none
NameList: AGL For New Fonts
DisplaySize: -48
AntiAlias: 1
FitToEm: 0
WidthSeparation: 312
WinInfo: 0 31 11
BeginPrivate: 0
EndPrivate
Grid
-2048 1566 m 0
 4096 1566 l 1024
  Named: "cap height"
250 2481 m 0
 250 -1615 l 1024
  Named: "m-mid-right, o-cap-mid"
4151 225 m 0
 -1993 225 l 0
 4151 225 l 0
  Named: "s-terminal"
912 2480 m 4
 912 -1616 l 1028
  Named: "m-mid-right, O-mid"
836 2481 m 0
 836 -1615 l 1024
  Named: "m-mid-left"
-2048 1637.98307292 m 0
 4096 1637.98307292 l 1024
  Named: "ascent"
-2048 1586 m 0
 4096 1586 l 1024
  Named: "ascent-52"
868 2662 m 0
 868 -1434 l 1024
  Named: "c-terminal"
-2048 174 m 0
 4096 174 l 1024
  Named: "c-terminal"
-2048 200 m 0
 4096 200 l 1024
  Named: "e-terminal"
223 2662 m 0
 223 -1434 l 1024
  Named: "i_center"
-2043 1256 m 0
 4101 1256 l 1024
  Named: "i_center"
-2048 660 m 0
 4096 660 l 1024
  Named: "upper-inner"
-2041 340 m 0
 4103 340 l 1024
  Named: "lower-inner"
-1924 900 m 0
 4220 900 l 1024
  Named: "inner-x"

StartChar: o
Encoding: 111 111 0
Width: 1216
VWidth: 0
Flags: W
HStem: -20 120<441.334 774.666> 900 120<445.584 774.666>
VStem: 119 125<315.443 683.02> 972 125<315.883 683.682>
LayerCount: 3
Fore
SplineSet
608 900 m 3
 358 900 244 658 244 500 c 3
 244 339 358 100 608 100 c 3
 858 100 972 340 972 500 c 3
 972 660 858 900 608 900 c 3
608 1020 m 3
 959 1020 1097 699 1097 500 c 3
 1097 299 959 -20 608 -20 c 3
 257 -20 119 298 119 500 c 3
 119 698 257 1020 608 1020 c 3
EndSplineSet
Validated: 1
EndChar

StartChar: n
Encoding: 110 110 1
Width: 1226
VWidth: 0
Flags: W
HStem: 0 21G<161 286 961 1086> 890 120<480.672 825.441>
VStem: 161 125<0 674.803 758 947> 961 125<0 733.253>
LayerCount: 3
Fore
SplineSet
161 947 m 1
 286 1000 l 1
 286 758 l 1
 286 758 317 1010 650 1010 c 3
 975 1010 1086 792 1086 490 c 2
 1086 0 l 1
 961 0 l 1
 961 490 l 2
 961 748 875 890 650 890 c 3
 400 890 286 660 286 490 c 2
 286 0 l 1
 161 0 l 1
 161 947 l 1
EndSplineSet
Validated: 1
EndChar

StartChar: h
Encoding: 104 104 2
Width: 1226
VWidth: 0
Flags: W
HStem: 0 21G<161 286 961 1086> 890 120<480.672 825.441> 1618 20G<237.923 286>
VStem: 161 125<0 674.803 758 1586> 961 125<0 733.253>
LayerCount: 3
Back
SplineSet
161 947 m 1
 286 1000 l 1
 286 758 l 1
 286 758 317 1010 650 1010 c 3
 975 1010 1086 792 1086 490 c 2
 1086 0 l 1
 961 0 l 1
 961 490 l 2
 961 748 875 890 650 890 c 3
 400 890 286 660 286 490 c 2
 286 0 l 1
 161 0 l 1
 161 947 l 1
EndSplineSet
Fore
SplineSet
161 1586 m 1
 286 1638 l 1
 286 758 l 1
 286 758 317 1010 650 1010 c 3
 975 1010 1086 792 1086 490 c 2
 1086 0 l 1
 961 0 l 1
 961 490 l 2
 961 749 875 890 650 890 c 3
 400 890 286 660 286 490 c 2
 286 0 l 1
 161 0 l 1
 161 1586 l 1
EndSplineSet
Validated: 1
EndChar

StartChar: u
Encoding: 117 117 3
Width: 1226
VWidth: 0
Flags: W
HStem: -10 120<400.559 745.328> 980 20G<140 265 940 1065>
VStem: 140 125<266.747 1000> 940 125<0 242 325.197 1000>
LayerCount: 3
Back
SplineSet
1065 53 m 1
 940 0 l 1
 940 242 l 1
 940 242 909 -10 576 -10 c 3
 251 -10 140 208 140 510 c 2
 140 1000 l 1
 265 1000 l 1
 265 510 l 2
 265 252 351 110 576 110 c 3
 826 110 940 340 940 510 c 2
 940 1000 l 1
 1065 1000 l 1
 1065 53 l 1
EndSplineSet
Fore
SplineSet
1065 0 m 1
 940 0 l 1
 940 242 l 1
 940 242 909 -10 576 -10 c 3
 251 -10 140 208 140 510 c 2
 140 1000 l 1
 265 1000 l 1
 265 510 l 2
 265 252 351 110 576 110 c 3
 826 110 940 340 940 510 c 2
 940 1000 l 1
 1065 1000 l 1
 1065 0 l 1
EndSplineSet
Validated: 1
EndChar

StartChar: l
Encoding: 108 108 4
Width: 664
VWidth: 0
Flags: W
HStem: 0 125<347.047 625> 1618 20G<230.077 277>
VStem: 152 125<189.258 1586>
LayerCount: 3
Fore
SplineSet
277 300 m 2
 277 174 394 125 487 125 c 2
 625 125 l 1
 625 0 l 1
 487 0 l 2
 279 0 153 125 152 300 c 2
 155 1586 l 1
 277 1638 l 1
 277 300 l 2
EndSplineSet
Validated: 1
EndChar

StartChar: i
Encoding: 105 105 5
Width: 447
VWidth: 0
Flags: W
HStem: 0 21G<161 286> 980 20G<161 286> 1170 172<154.102 293.701>
VStem: 143 161<1181.17 1332.45> 161 125<0 1000>
LayerCount: 3
Back
SplineSet
286 300 m 2
 286 174 403 125 496 125 c 2
 634 125 l 1
 634 0 l 1
 496 0 l 2
 288 0 161 125.000976562 161 300 c 2
 161 1586 l 1
 286 1638 l 1
 286 300 l 2
EndSplineSet
Fore
SplineSet
143 1256 m 1xf0
 143 1310 186 1342 223 1342 c 3
 260 1342 304 1312 304 1256 c 3
 304 1203 260 1170 223 1170 c 3
 186 1170 143 1208 143 1256 c 1xf0
286 1000 m 1xe8
 286 0 l 1
 161 0 286 0 161 0 c 1
 161 1000 l 1
 286 1000 l 1xe8
EndSplineSet
Validated: 1
EndChar

StartChar: j
Encoding: 106 106 6
Width: 447
VWidth: 0
Flags: W
HStem: -591 125<-187 91.0938> 980 20G<161 286> 1170 172<154.102 293.701>
VStem: 143 161<1181.17 1332.45> 161 125<-401.742 1000>
LayerCount: 3
Back
SplineSet
143 1256 m 5xe0
 143 1310 186 1342 223 1342 c 7
 260 1342 304 1312 304 1256 c 7
 304 1203 260 1170 223 1170 c 7
 186 1170 143 1208 143 1256 c 5xe0
286 1000 m 1xd0
 286 0 l 1
 161 0 286 0 161 0 c 1
 161 1000 l 1
 286 1000 l 1xd0
EndSplineSet
Fore
SplineSet
143 1256 m 1xf0
 143 1310 186 1342 223 1342 c 3
 260 1342 304 1312 304 1256 c 3
 304 1203 260 1170 223 1170 c 3
 186 1170 143 1208 143 1256 c 1xf0
161 -291 m 2xe8
 161 1000 l 1
 286 1000 l 1
 286 -291 l 2
 286 -466 159 -591 -49 -591 c 2
 -187 -591 l 1
 -187 -466 l 1
 -49 -466 l 2
 44 -466 161 -417 161 -291 c 2xe8
EndSplineSet
Validated: 1
EndChar

StartChar: e
Encoding: 101 101 7
Width: 1209
VWidth: 0
Flags: W
HStem: -20 120<437.854 853.86> 440 120<247 965> 900 120<438.06 772.857>
VStem: 119 128<307.319 440 560 692.245>
CounterMasks: 1 e0
LayerCount: 3
Back
SplineSet
604 900 m 3
 354 900 240 658 240 500 c 3
 240 339 354 100 604 100 c 3
 854 100 968 340 968 500 c 3
 968 660 854 900 604 900 c 3
604 1020 m 3
 955 1020 1093 699 1093 500 c 3
 1093 299 955 -20 604 -20 c 3
 253 -20 115 298 115 500 c 3
 115 698 253 1020 604 1020 c 3
EndSplineSet
Fore
SplineSet
247 440 m 1
 271 286 386 100 606 100 c 3
 742 100 817 116 965 200 c 1
 1017 75 l 1
 874 11 817 -20 606 -20 c 3
 339 -20 196 162 142 340 c 0
 125 396 119 452 119 500 c 3
 119 548 125 603 142 660 c 0
 196 837 340 1020 606 1020 c 3
 868 1020 1012 836 1069 660 c 0
 1087 604 1093 548 1093 500 c 3
 1093 481 1088 440 1088 440 c 1
 808 440 527 440 247 440 c 1
247 560 m 1
 965 560 l 1
 941 714 826 900 606 900 c 3
 386 900 271 713 247 560 c 1
EndSplineSet
Validated: 1
EndChar

StartChar: c
Encoding: 99 99 8
Width: 1012
VWidth: 0
Flags: W
HStem: -20 120<441.334 800.179> 900 121<445.584 801.234>
VStem: 119 125<315.443 683.116>
LayerCount: 3
Back
SplineSet
608 900 m 3
 358 900 244 658 244 500 c 3
 244 339 358 100 608 100 c 3
 858 100 972 340 972 500 c 3
 972 660 858 900 608 900 c 3
608 1020 m 3
 959 1020 1097 699 1097 500 c 3
 1097 299 959 -20 608 -20 c 3
 257 -20 119 298 119 500 c 3
 119 698 257 1020 608 1020 c 3
EndSplineSet
Fore
SplineSet
868 826 m 1
 820 855 676 900 608 900 c 3
 358 900 244 658 244 500 c 3
 244 339 358 100 608 100 c 3
 676 100 820 145 868 174 c 1
NamedP: "868, 174"
 914 48 l 1
 736 -20 673 -20 608 -20 c 3
 257 -20 119 298 119 500 c 3
 119 698 257 1021 608 1021 c 3
 673 1021 735 1020 920 951 c 1
 868 826 l 1
EndSplineSet
Validated: 1
EndChar

StartChar: t
Encoding: 116 116 9
Width: 788
VWidth: 0
Flags: W
HStem: 0 125<395.906 674> 880 120<48 201 326 674>
VStem: 201 125<189.258 880 1000 1226>
LayerCount: 3
Fore
SplineSet
326 880 m 1
 326 300 l 2
 326 174 443 125 536 125 c 2
 674 125 l 1
 674 0 l 1
 536 0 l 2
 328 0 201 125 201 300 c 2
 201 880 l 1
 48 880 l 1
 48 1000 l 1
 201 1000 l 1
 201 1226 l 1
 326 1278 l 1
 326 1000 l 1
 674 1000 l 1
 674 880 l 1
 326 880 l 1
EndSplineSet
Validated: 1
EndChar

StartChar: f
Encoding: 102 102 10
Width: 788
VWidth: 0
Flags: W
HStem: 0 21G<201 326> 880 120<48 201 326 674> 1461 125<395.906 674>
VStem: 201 125<0 880 1000 1396.74>
LayerCount: 3
Fore
SplineSet
326 1000 m 1
 674 1000 l 1
 674 880 l 1
 326 880 l 1
 326 0 l 1
 201 0 l 1
 201 880 l 1
 48 880 l 1
 48 1000 l 1
 201 1000 l 1
 201 1286 l 2
 201 1461 328 1586 536 1586 c 2
 674 1586 l 1
 674 1461 l 1
 536 1461 l 2
 443 1461 326 1412 326 1286 c 2
 326 1000 l 1
EndSplineSet
Validated: 1
EndChar

StartChar: d
Encoding: 100 100 11
Width: 1258
VWidth: 0
Flags: W
HStem: -20 120<441.334 777.328> 0 21G<972 1097> 900 120<445.584 777.328> 1618 20G<972 1097>
VStem: 119 125<315.443 683.02> 972 125<0 242 319.639 680.361 758 1638>
LayerCount: 3
Back
SplineSet
1097 947 m 1
 972 1000 l 1
 972 758 l 2
 972 758 941 1009 608 1009 c 3
 257 1009 172 802 172 500 c 2
 172 500 172 500 172 0 c 1
 297 0 172 0 297 0 c 1
 297 501 297 501 297 501 c 2
 297 759 358 890 608 890 c 3
 858 890 972 650 972 498 c 2
 972 0 l 1
 1097 0 972 0 1097 0 c 1
 1097 947 l 1
EndSplineSet
Fore
SplineSet
972 758 m 9xbc
 972 1638 l 1
 1097 1638 l 1
 1097 1109 1097 529 1097 0 c 1
 972 0 l 1x7c
 972 242 l 1
 972 242 941 -20 608 -20 c 3
 257 -20 119 298 119 500 c 3
 119 698 257 1020 608 1020 c 3
 941 1020 972 758 972 758 c 9xbc
608 900 m 3
 358 900 244 658 244 500 c 3
 244 339 358 100 608 100 c 3xbc
 858 100 972 340 972 500 c 0
 972 660 858 900 608 900 c 3
EndSplineSet
Validated: 1
EndChar

StartChar: a
Encoding: 97 97 12
Width: 1258
VWidth: 0
Flags: W
HStem: -20 120<441.334 777.328> 0 21G<972 1097> 900 120<445.584 777.328> 980 20G<972 1097>
VStem: 119 125<315.443 683.02> 972 125<0 242 319.639 680.361 758 1000>
LayerCount: 3
Back
SplineSet
608 900 m 3
 358 900 244 658 244 500 c 3
 244 339 358 100 608 100 c 3
 858 100 972 340 972 500 c 3
 972 660 858 900 608 900 c 3
608 1020 m 3
 959 1020 1097 699 1097 500 c 3
 1097 299 959 -20 608 -20 c 3
 257 -20 119 298 119 500 c 3
 119 698 257 1020 608 1020 c 3
EndSplineSet
Fore
SplineSet
972 758 m 1xac
 972 1000 l 1
 1097 1000 l 1
 1097 471 1097 529 1097 0 c 1
 972 0 l 1x5c
 972 242 l 1
 972 242 941 -20 608 -20 c 3
 257 -20 119 298 119 500 c 3
 119 698 257 1020 608 1020 c 3
 941 1020 972 758 972 758 c 1xac
608 900 m 3xac
 358 900 244 658 244 500 c 3
 244 339 358 100 608 100 c 3
 858 100 972 340 972 500 c 0
 972 660 858 900 608 900 c 3xac
EndSplineSet
Validated: 1
EndChar

StartChar: b
Encoding: 98 98 13
Width: 1258
VWidth: 0
Flags: W
HStem: -20 120<480.672 816.666> 0 21G<161 286> 900 120<480.672 812.416> 1618 20G<237.923 286>
VStem: 161 125<0 242 319.639 680.361 758 1586> 1014 125<315.443 683.02>
LayerCount: 3
Fore
SplineSet
286 758 m 17x7c
 286 758 317 1020 650 1020 c 3
 1001 1020 1139 698 1139 500 c 3
 1139 298 1001 -20 650 -20 c 3xbc
 317 -20 286 242 286 242 c 1
 286 0 l 1
 161 0 l 1
 161 1586 l 1
 286 1638 l 1
 286 758 l 17x7c
650 900 m 3
 400 900 286 660 286 500 c 0
 286 340 400 100 650 100 c 3
 900 100 1014 339 1014 500 c 3
 1014 658 900 900 650 900 c 3
EndSplineSet
Validated: 1
EndChar

StartChar: q
Encoding: 113 113 14
Width: 1258
VWidth: 0
Flags: W
HStem: -585 21G<972 1097> -20 120<445.584 777.328> 900 120<441.334 777.328> 980 20G<972 1097>
VStem: 119 125<316.98 684.557> 972 125<-585 242 319.639 680.361 758 1000>
LayerCount: 3
Fore
SplineSet
972 242 m 1xdc
 972 242 941 -20 608 -20 c 3
 257 -20 119 302 119 500 c 3
 119 702 257 1020 608 1020 c 3xec
 941 1020 972 758 972 758 c 1
 972 1000 l 1
 1097 1000 l 1
 1097 -585 l 1
 972 -585 l 1
 972 242 l 1xdc
608 100 m 3
 858 100 972 340 972 500 c 0
 972 660 858 900 608 900 c 3
 358 900 244 661 244 500 c 3
 244 342 358 100 608 100 c 3
EndSplineSet
Validated: 1
EndChar

StartChar: p
Encoding: 112 112 15
Width: 1258
VWidth: 0
Flags: W
HStem: -585 21G<161 286> -20 120<480.672 812.416> 900 120<480.672 816.666> 980 20G<237.923 286>
VStem: 161 125<-585 242 319.639 680.361 758 948> 1014 125<316.98 684.557>
LayerCount: 3
Fore
SplineSet
286 242 m 1xec
 286 -585 l 1
 161 -585 l 1
 161 948 l 1
 286 1000 l 1xdc
 286 758 l 1
 286 758 317 1020 650 1020 c 3
 1001 1020 1139 702 1139 500 c 3
 1139 302 1001 -20 650 -20 c 3
 317 -20 286 242 286 242 c 1xec
650 100 m 3
 900 100 1014 342 1014 500 c 3
 1014 661 900 900 650 900 c 3xec
 400 900 286 660 286 500 c 0
 286 340 400 100 650 100 c 3
EndSplineSet
Validated: 1
EndChar

StartChar: m
Encoding: 109 109 16
Width: 1776
VWidth: 0
Flags: W
HStem: 0 21G<161 286 836 961 1511 1636> 890 120<428.98 743.796 1094.03 1400.87>
VStem: 161 125<0 723.293 758 947> 836 125<0 737.693> 1511 125<0 755.415>
CounterMasks: 1 38
LayerCount: 3
Back
SplineSet
161 947 m 1
 286 1000 l 1
 286 758 l 1
 286 758 317 1010 650 1010 c 3
 975 1010 1086 792 1086 490 c 2
 1086 0 l 1
 961 0 l 1
 961 490 l 2
 961 748 875 890 650 890 c 3
 400 890 286 660 286 490 c 2
 286 0 l 1
 161 0 l 1
 161 947 l 1
EndSplineSet
Fore
SplineSet
588 1010 m 3
 836 1010 912 896 912 758 c 1
 912 896 1039 1010 1263 1010 c 3
 1542 1010 1636 792 1636 490 c 2
 1636 0 l 1
 1511 0 l 1
 1511 490 l 2
 1511 747 1444 890 1263 890 c 3
 1046 890 961 748 961 490 c 2
 961 0 l 1
 836 0 l 1
 836 490 l 2
 836 748 799 890 588 890 c 3
 338 890 286 660 286 490 c 2
 286 0 l 1
 161 0 l 1
 161 947 l 1
 286 1000 l 1
 286 758 l 1
 286 758 286 1010 588 1010 c 3
EndSplineSet
Validated: 1
EndChar

StartChar: r
Encoding: 114 114 17
Width: 737
VWidth: 0
Flags: W
HStem: 890 120<482.575 650>
VStem: 161 125<0 674.803 758 947>
LayerCount: 3
Back
SplineSet
161 947 m 1
 286 1000 l 1
 286 758 l 1
 286 758 317 1010 650 1010 c 3
 975 1010 1086 792 1086 490 c 2
 1086 0 l 1
 961 0 l 1
 961 490 l 2
 961 748 875 890 650 890 c 3
 400 890 286 660 286 490 c 2
 286 0 l 1
 161 0 l 1
 161 947 l 1
EndSplineSet
Fore
SplineSet
650 890 m 1
 400 890 286 660 286 490 c 2
 286 0 l 1
 161 0 l 1
 161 947 l 1
 286 1000 l 1
 286 758 l 1
 286 758 318 1010 650 1010 c 1
 650 890 l 1
EndSplineSet
Validated: 1
EndChar

StartChar: period
Encoding: 46 46 18
Width: 500
VWidth: 0
Flags: W
HStem: 0 192<218.881 381.119>
VStem: 204 192<14.8805 177.119>
LayerCount: 3
Fore
SplineSet
204 96 m 3
 204 150 246 192 300 192 c 3
 354 192 396 150 396 96 c 3
 396 42 354 0 300 0 c 3
 246 0 204 42 204 96 c 3
EndSplineSet
Validated: 1
EndChar

StartChar: H
Encoding: 72 72 19
Width: 1547
VWidth: 0
Flags: W
HStem: -2 21G<161 286 1261 1386> 760 120<286 1261> 1546 20G<161 286 1261 1386>
VStem: 161 125<-2 760 880 1566> 1261 125<-2 760 880 1566>
LayerCount: 3
Fore
SplineSet
161 -2 m 1
 161 1566 l 1
 286 1566 l 1
 286 880 l 1
 1261 880 l 1
 1261 1566 l 1
 1386 1566 l 1
 1386 -2 l 1
 1261 -2 l 1
 1261 760 l 1
 286 760 l 1
 286 -2 l 1
 161 -2 l 1
EndSplineSet
Validated: 1
EndChar

StartChar: M
Encoding: 77 77 20
Width: 1908
VWidth: 0
Flags: W
HStem: -2 21G<161 286> 1546 20G<161 296.333 1611.67 1747>
VStem: 161 125<-2 1293> 1622 125<0 1293>
LayerCount: 3
Back
SplineSet
463 1000 m 1
 598 1000 l 1
 954 130 l 1
 1309 1000 l 1
 1445 1000 l 1
 1022 0 l 1
 881 0 l 1
 463 1000 l 1
EndSplineSet
Fore
SplineSet
161 -2 m 1
 161 1566 l 1
 286 1566 l 1
 954 273 l 1
 1622 1566 l 1
 1747 1566 l 1
 1747 0 l 1
 1622 0 l 1
 1622 1293 l 1
 954 0 l 1
 286 1293 l 1
 286 -2 l 1
 161 -2 l 1
EndSplineSet
Validated: 1
EndChar

StartChar: I
Encoding: 73 73 21
Width: 447
VWidth: 0
Flags: W
HStem: -2 21G<161 286> 1546 20G<161 286>
VStem: 161 125<-2 1566>
LayerCount: 3
Fore
SplineSet
161 -2 m 1
 161 1566 l 1
 286 1566 l 1
 286 -2 l 1
 161 -2 l 1
EndSplineSet
Validated: 1
EndChar

StartChar: s
Encoding: 115 115 23
Width: 958
VWidth: 0
Flags: W
HStem: -24 124<255.766 666.956> 900 124<289.85 662.234>
VStem: 106 126<659.744 846.189> 729 123<154.511 346.821>
LayerCount: 3
Back
SplineSet
729 826 m 1
 681 855 537 900 469 900 c 3
 219 900 105 658 105 500 c 3
 105 339 219 100 469 100 c 3
 537 100 681 145 729 174 c 1
 775 48 l 1
 597 -20 534 -20 469 -20 c 3
 118 -20 -20 298 -20 500 c 3
 -20 698 118 1021 469 1021 c 3
 534 1021 596 1020 781 951 c 1
 729 826 l 1
EndSplineSet
Fore
SplineSet
469 570 m 0
 751 502 852 408 852 225 c 3
 852 42 650 -24 449 -24 c 3
 384 -24 322 -20 137 49 c 1
 189 174 l 1
 237 145 381 100 449 100 c 3
 589 100 729 143 729 225 c 3
 729 328 676 401 469 450 c 0
 186 517 106 642 106 775 c 3
 106 917 270 1024 469 1024 c 3
 534 1024 596 1020 781 951 c 1
 729 826 l 1
 681 855 537 900 469 900 c 3
 330 900 232 839 232 775 c 3
 232 722 236 626 469 570 c 0
EndSplineSet
Validated: 1
Layer: 2
SplineSet
189 174 m 1
 237 145 381 100 449 100 c 3
 699 100 813 342 813 500 c 0
 813 661 699 900 449 900 c 3
 381 900 237 855 189 826 c 1
 143 952 l 1
 321 1020 384 1020 449 1020 c 3
 800 1020 938 702 938 500 c 0
 938 302 800 -21 449 -21 c 3
 384 -21 322 -20 137 49 c 1
 189 174 l 1
EndSplineSet
EndChar

StartChar: v
Encoding: 118 118 24
Width: 1166
VWidth: 0
Flags: W
HStem: 0 21G<501.64 659.46> 980 20G<92 235.184 929.839 1074>
LayerCount: 3
Back
SplineSet
1045 0 m 1
 920 0 l 1
 920 242 l 2
 920 242 889 -10 556 -10 c 0
 205 -10 120 198 120 500 c 2
 120 500 120 500 120 1000 c 1
 245 1000 120 1000 245 1000 c 1
 245 499 245 499 245 499 c 2
 245 241 306 110 556 110 c 0
 806 110 920 350 920 502 c 2
 920 1000 l 1
 1045 1000 920 1000 1045 1000 c 1
 1045 0 l 1
EndSplineSet
Fore
SplineSet
92 1000 m 1
 227 1000 l 1
 583 130 l 1
 938 1000 l 1
 1074 1000 l 1
 651 0 l 1
 510 0 l 1
 92 1000 l 1
EndSplineSet
Validated: 1
EndChar

StartChar: y
Encoding: 121 121 25
Width: 1166
VWidth: 0
Flags: W
HStem: -591 125<55 309.876> 980 20G<92 235.184 929.839 1074>
LayerCount: 3
Back
SplineSet
488 1256 m 1xe0
 488 1310 531 1342 568 1342 c 3
 605 1342 649 1312 649 1256 c 3
 649 1203 605 1170 568 1170 c 3
 531 1170 488 1208 488 1256 c 1xe0
506 -291 m 2xd0
 506 1000 l 1
 631 1000 l 1
 631 -291 l 2
 631 -466 504 -591 296 -591 c 2
 158 -591 l 1
 158 -466 l 1
 296 -466 l 2
 389 -466 506 -417 506 -291 c 2xd0
EndSplineSet
Fore
SplineSet
528 -291 m 2
 461 -450 401 -591 193 -591 c 2
 55 -591 l 1
 55 -466 l 1
 193 -466 l 2
 286 -466 341 -415 393 -291 c 2
 512 -5 l 1
 92 1000 l 1
 227 1000 l 1
 583 130 l 1
 938 1000 l 1
 1074 1000 l 1
 528 -291 l 2
EndSplineSet
Validated: 1
Layer: 2
SplineSet
92 1000 m 1
 227 1000 l 1
 583 130 l 1
 938 1000 l 1
 1074 1000 l 1
 651 0 l 1
 510 0 l 1
 92 1000 l 1
EndSplineSet
EndChar

StartChar: w
Encoding: 119 119 26
Width: 1741
VWidth: 0
Flags: W
HStem: 0 21G<434.08 590.101 1144.07 1300.06> 980 20G<95 233.636 861.769 878.208 1506.34 1646>
LayerCount: 3
Back
SplineSet
92 1000 m 1
 227 1000 l 1
 583 130 l 1
 938 1000 l 1
 1074 1000 l 1
 651 0 l 1
 510 0 l 1
 92 1000 l 1
EndSplineSet
Fore
SplineSet
95 1000 m 1
 227 1000 l 1
 514 135 l 1
 870 1000 l 1
 1225 135 l 1
 1513 1000 l 1
 1646 1000 l 1
 1293 0 l 1
 1152 0 l 1
 870 711 l 1
 582 0 l 1
 441 0 l 1
 95 1000 l 1
EndSplineSet
Validated: 1
EndChar

StartChar: g
Encoding: 103 103 27
Width: 1258
VWidth: 0
Flags: W
HStem: -591 121<310.766 731.599> -20 120<445.584 777.328> 900 120<441.334 777.328> 980 20G<972 1097>
VStem: 119 125<316.98 684.557> 972 125<-245.844 242 319.639 680.361 758 1000>
LayerCount: 3
Back
SplineSet
972 242 m 1xdc
 972 242 941 -20 608 -20 c 3
 257 -20 119 302 119 500 c 3
 119 702 257 1020 608 1020 c 3xec
 941 1020 972 758 972 758 c 1
 972 1000 l 1
 1097 1000 l 1
 1097 -585 l 1
 972 -585 l 1
 972 242 l 1xdc
608 100 m 3
 858 100 972 340 972 500 c 0
 972 660 858 900 608 900 c 3
 358 900 244 661 244 500 c 3
 244 342 358 100 608 100 c 3
EndSplineSet
Fore
SplineSet
608 100 m 0xec
 858 100 972 340 972 500 c 0
 972 660 858 900 608 900 c 0
 358 900 244 661 244 500 c 0
 244 342 358 100 608 100 c 0xec
972 242 m 1
 972 242 941 -20 608 -20 c 0
 257 -20 119 302 119 500 c 0
 119 702 257 1020 608 1020 c 0xec
 941 1020 972 758 972 758 c 1
 972 1000 l 1
 1097 1000 l 1xdc
 1097 -70 l 2
 1097 -268 972 -591 504 -591 c 3
 439 -591 377 -590 192 -521 c 1
 244 -396 l 1
 292 -425 436 -470 504 -470 c 3
 868 -470 972 -228 972 -70 c 2
 972 242 l 1
EndSplineSet
Validated: 1
Layer: 2
SplineSet
244 -396 m 1
 292 -425 436 -470 504 -470 c 3
 754 -470 868 -228 868 -70 c 0
 868 91 754 330 504 330 c 3
 436 330 292 285 244 256 c 1
NamedP: "868, 174"
 198 382 l 1
 376 450 439 450 504 450 c 3
 855 450 993 132 993 -70 c 0
 993 -268 855 -591 504 -591 c 3
 439 -591 377 -590 192 -521 c 1
 244 -396 l 1
EndSplineSet
EndChar

StartChar: z
Encoding: 122 122 28
Width: 1012
VWidth: 0
Flags: W
HStem: 5 120<261 906> 875 120<106 751>
LayerCount: 3
Back
SplineSet
106 947 m 1
 231 1000 l 1
 231 758 l 2
 231 758 262 1009 595 1009 c 3
 946 1009 1031 802 1031 500 c 2
 1031 500 1031 500 1031 0 c 1
 906 0 1031 0 906 0 c 1
 906 501 906 501 906 501 c 2
 906 759 845 890 595 890 c 3
 345 890 231 650 231 498 c 2
 231 0 l 1
 106 0 231 0 106 0 c 1
 106 947 l 1
EndSplineSet
Fore
SplineSet
106 123 m 1
 751 875 l 1
 106 875 l 1
 106 995 l 1
 906 995 l 1
 906 877 l 1
 261 125 l 1
 906 125 l 1
 906 5 l 1
 106 5 l 1
 106 123 l 1
EndSplineSet
Validated: 1
EndChar

StartChar: x
Encoding: 120 120 29
Width: 1130
VWidth: 0
Flags: W
HStem: 0 21G<91 256.711 873.482 1039> 980 20G<91 256.69 873.31 1039>
LayerCount: 3
Back
SplineSet
165 123 m 1
 810 875 l 1
 165 875 l 1
 165 995 l 1
 965 995 l 1
 965 877 l 1
 320 125 l 1
 965 125 l 1
 965 5 l 1
 165 5 l 1
 165 123 l 1
EndSplineSet
Fore
SplineSet
91 1000 m 1
 241 1000 l 1
 565 587 l 1
 889 1000 l 1
 1039 1000 l 1
 643 500 l 1
 1039 0 l 1
 889 0 l 1
 567 415 l 1
 241 0 l 1
 91 0 l 1
 487 500 l 1
 91 1000 l 1
EndSplineSet
Validated: 1
Layer: 2
SplineSet
72 1000 m 1
 207 1000 l 1
 563 130 l 1
 918 1000 l 1
 1054 1000 l 1
 631 0 l 1
 490 0 l 1
 72 1000 l 1
EndSplineSet
EndChar

StartChar: comma
Encoding: 44 44 30
Width: 500
VWidth: 0
Flags: W
HStem: -297 50<132.979 163.18> 0 192<218.881 300>
VStem: 300 96<-102.873 0>
LayerCount: 3
Back
SplineSet
204 96 m 3
 204 150 246 192 300 192 c 3
 354 192 396 150 396 96 c 3
 396 42 354 0 300 0 c 3
 246 0 204 42 204 96 c 3
EndSplineSet
Fore
SplineSet
300 0 m 1
 246 0 204 42 204 96 c 3
 204 150 246 192 300 192 c 3
 354 192 396 150 396 96 c 3
 396 -144 238 -265 139 -297 c 1
 118 -247 l 1
 208 -211 300 -115 300 0 c 1
EndSplineSet
Validated: 1
EndChar

StartChar: k
Encoding: 107 107 31
Width: 1012
VWidth: 0
Flags: W
HStem: 0 21G<161 286 772.801 963> 980 20G<766.798 957> 1618 20G<237.923 286>
VStem: 161 125<0 502 504 1586>
LayerCount: 3
Back
SplineSet
161 118 m 1
 806 880 l 1
 161 880 l 1
 161 1000 l 1
 961 1000 l 1
 961 882 l 1
 316 120 l 1
 961 120 l 1
 961 0 l 1
 161 0 l 1
 161 118 l 1
EndSplineSet
Fore
SplineSet
286 0 m 1
 161 0 l 1
 161 1586 l 1
 286 1638 l 1
 286 504 l 1
 787 1000 l 1
 957 1000 l 1
 456 503 l 1
 963 0 l 1
 793 0 l 1
 286 502 l 1
 286 0 l 1
EndSplineSet
Validated: 1
EndChar

StartChar: N
Encoding: 78 78 32
Width: 1547
VWidth: 0
Flags: W
HStem: -2 21G<161 286 1246.64 1386> 1546 20G<161 300.359 1261 1386>
VStem: 161 125<-2 1356> 1261 125<208 1566>
LayerCount: 3
Back
SplineSet
161 -2 m 1
 161 1566 l 1
 286 1566 l 1
 954 273 l 1
 1622 1566 l 1
 1747 1566 l 1
 1747 0 l 1
 1622 0 l 1
 1622 1293 l 1
 954 0 l 1
 286 1293 l 1
 286 -2 l 1
 161 -2 l 1
EndSplineSet
Fore
SplineSet
161 -2 m 1
 161 1566 l 1
 286 1566 l 1
 1261 208 l 1
 1261 1566 l 1
 1386 1566 l 1
 1386 -2 l 1
 1261 -2 l 1
 286 1356 l 1
 286 -2 l 1
 161 -2 l 1
EndSplineSet
Validated: 1
EndChar

StartChar: T
Encoding: 84 84 33
Width: 1303
VWidth: 0
Flags: W
HStem: -2 21G<589 714> 1441 120<39 589 714 1264>
VStem: 589 125<-2 1441>
LayerCount: 3
Fore
SplineSet
39 1441 m 1
 39 1561 l 1
 1264 1561 l 1
 1264 1441 l 1
 714 1441 l 1
 714 -2 l 1
 589 -2 l 1
 589 1441 l 1
 39 1441 l 1
EndSplineSet
Validated: 1
EndChar

StartChar: hyphen
Encoding: 45 45 34
Width: 822
VWidth: 0
Flags: W
HStem: 440 120<161 661>
VStem: 161 500<440 560>
LayerCount: 3
Back
SplineSet
204 804 m 3
 204 858 246 900 300 900 c 3
 354 900 396 858 396 804 c 3
 396 750 354 708 300 708 c 3
 246 708 204 750 204 804 c 3
204 96 m 3
 204 150 246 192 300 192 c 3
 354 192 396 150 396 96 c 3
 396 42 354 0 300 0 c 3
 246 0 204 42 204 96 c 3
EndSplineSet
Fore
SplineSet
161 560 m 1
 661 560 l 1
 661 440 l 1
 161 440 l 1
 161 560 l 1
EndSplineSet
Validated: 1
EndChar

StartChar: L
Encoding: 76 76 35
Width: 939
VWidth: 0
Flags: W
HStem: 5 120<286 900> 1546 20G<161 286>
VStem: 161 125<125 1566>
LayerCount: 3
Back
SplineSet
900 1561 m 5
 900 1441 l 5
 286 1441 l 5
 286 880 l 5
 894 880 l 5
 894 760 l 5
 286 760 l 5
 286 125 l 5
 900 125 l 5
 900 5 l 5
 161 5 l 5
 161 1561 l 5
 900 1561 l 5
EndSplineSet
Fore
SplineSet
900 125 m 1
 900 5 l 1
 161 5 l 1
 161 1566 l 1
 286 1566 l 1
 286 125 l 1
 900 125 l 1
EndSplineSet
Validated: 1
EndChar

StartChar: E
Encoding: 69 69 36
Width: 1004
VWidth: 0
Flags: W
HStem: 5 120<286 900> 760 120<286 894> 1441 120<286 900>
VStem: 161 125<125 760 880 1441>
LayerCount: 3
Fore
SplineSet
900 1561 m 1
 900 1441 l 1
 286 1441 l 1
 286 880 l 1
 894 880 l 1
 894 760 l 1
 286 760 l 1
 286 125 l 1
 900 125 l 1
 900 5 l 1
 161 5 l 1
 161 1561 l 1
 900 1561 l 1
EndSplineSet
Validated: 1
EndChar

StartChar: F
Encoding: 70 70 37
Width: 1004
VWidth: 0
Flags: W
HStem: -2 21G<161 286> 760 120<286 894> 1441 120<286 900>
VStem: 161 125<-2 760 880 1441>
LayerCount: 3
Back
SplineSet
900 1561 m 1
 900 1441 l 1
 286 1441 l 1
 286 880 l 1
 894 880 l 1
 894 760 l 1
 286 760 l 1
 286 125 l 1
 900 125 l 1
 900 5 l 1
 161 5 l 1
 161 1561 l 1
 900 1561 l 1
EndSplineSet
Fore
SplineSet
161 -2 m 1
 161 1561 l 1
 900 1561 l 1
 900 1441 l 1
 286 1441 l 1
 286 880 l 1
 894 880 l 1
 894 760 l 1
 286 760 l 1
 286 -2 l 1
 161 -2 l 1
EndSplineSet
Validated: 1
EndChar

StartChar: O
Encoding: 79 79 38
Width: 1824
VWidth: 0
Flags: W
HStem: -20 120<676.944 1147.06> 1466 120<676.944 1147.06>
VStem: 119 125<546.563 1019.44> 1580 125<546.563 1019.44>
LayerCount: 3
Back
SplineSet
119 0 m 1
 119 1566 l 1
 244 1566 l 1
 912 273 l 1
 1580 1566 l 1
 1705 1566 l 1
 1705 0 l 1
 1580 0 l 1
 1580 1293 l 1
 912 0 l 1
 244 1293 l 1
 244 0 l 1
 119 0 l 1
EndSplineSet
Fore
SplineSet
119 783 m 3
 119 1229 466 1586 912 1586 c 3
 1358 1586 1705 1229 1705 783 c 3
 1705 337 1358 -20 912 -20 c 3
 466 -20 119 337 119 783 c 3
912 1466 m 3
 539 1466 244 1156 244 783 c 3
 244 410 539 100 912 100 c 3
 1285 100 1580 410 1580 783 c 3
 1580 1156 1285 1466 912 1466 c 3
EndSplineSet
Validated: 1
EndChar

StartChar: C
Encoding: 67 67 39
Width: 1348
VWidth: 0
Flags: W
HStem: -20 120<676.944 1135.76> 1466 120<676.944 1133.16>
VStem: 119 125<546.563 1019.44>
LayerCount: 3
Back
SplineSet
119 783 m 3
 119 1229 466 1586 912 1586 c 3
 1358 1586 1705 1229.00097656 1705 783 c 3
 1705 337 1358 -20 912 -20 c 3
 466 -20 119 336.995117188 119 783 c 3
912 1466 m 3
 539 1466 244 1156 244 783 c 3
 244 409.999023438 539 100 912 100 c 3
 1285 100 1580 410 1580 783 c 3
 1580 1156 1285 1466 912 1466 c 3
EndSplineSet
Fore
SplineSet
1204 174 m 1
 1250 48 l 1
 1149 1 1032 -20 912 -20 c 3
 466 -20 119 337 119 783 c 3
 119 1229 466 1586 912 1586 c 3
 1033 1586 1155 1562 1256 1516 c 1
 1204 1391 l 1
 1116 1434 1017 1466 912 1466 c 3
 539 1466 244 1156 244 783 c 3
 244 410 539 100 912 100 c 3
 1017 100 1116 129 1204 174 c 1
EndSplineSet
Validated: 1
Layer: 2
SplineSet
1204 826 m 1
 1156 855 1012 900 944 900 c 3
 694 900 580 658 580 500 c 3
 580 339 694 100 944 100 c 3
 1012 100 1156 145 1204 174 c 1
NamedP: "868, 174"
 1250 48 l 1
 1072 -20 1009 -20 944 -20 c 3
 593 -20 455 298 455 500 c 3
 455 698 593 1021 944 1021 c 3
 1009 1021 1071 1020 1256 951 c 1
 1204 826 l 1
EndSplineSet
EndChar

StartChar: colon
Encoding: 58 58 40
Width: 500
VWidth: 0
Flags: W
HStem: 0 192<218.881 381.119> 708 192<218.881 381.119>
VStem: 204 192<14.8805 177.119 722.881 885.119>
LayerCount: 3
Fore
SplineSet
204 804 m 3
 204 858 246 900 300 900 c 3
 354 900 396 858 396 804 c 3
 396 750 354 708 300 708 c 3
 246 708 204 750 204 804 c 3
204 96 m 3
 204 150 246 192 300 192 c 3
 354 192 396 150 396 96 c 3
 396 42 354 0 300 0 c 3
 246 0 204 42 204 96 c 3
EndSplineSet
Validated: 1
EndChar

StartChar: D
Encoding: 68 68 41
Width: 1398
VWidth: 0
Flags: W
HStem: 0 120<276 717.313> 1446 120<276 717.313>
VStem: 161 115<120 1446> 1154 125<548.712 1017.29>
LayerCount: 3
Back
SplineSet
194 1392 m 1
 148 1518 l 1
 249 1565 366 1586 486 1586 c 3
 932 1586 1279 1229 1279 783 c 3
 1279 337 932 -20 486 -20 c 3
 365 -20 243 4 142 50 c 1
 194 175 l 1
 282 132 381 100 486 100 c 3
 859 100 1154 410 1154 783 c 3
 1154 1156 859 1466 486 1466 c 3
 381 1466 282 1437 194 1392 c 1
EndSplineSet
Fore
SplineSet
276 120 m 1
 276 120 370 120 486 120 c 3
 859 120 1154 410 1154 783 c 3
 1154 1156 859 1446 486 1446 c 3
 370 1446 276 1446 276 1446 c 1
 276 120 l 1
161 0 m 1
 161 1566 l 1
 161 1566 307 1566 486 1566 c 3
 932 1566 1279 1229 1279 783 c 3
 1279 337 932 0 486 0 c 3
 307 0 161 0 161 0 c 1
EndSplineSet
Validated: 1
EndChar

StartChar: quotesingle
Encoding: 39 39 42
Width: 600
VWidth: 0
Flags: W
HStem: 1000 566<254.268 345.732>
VStem: 233 134<1094.87 1566>
LayerCount: 3
Back
SplineSet
204 96 m 3
 204 150 246 192 300 192 c 3
 354 192 396 150 396 96 c 3
 396 42 354 0 300 0 c 3
 246 0 204 42 204 96 c 3
EndSplineSet
Fore
SplineSet
345 1000 m 1
 255 1000 l 1
 255 1000 233 1345 233 1566 c 1
 367 1566 l 1
 367 1345 345 1000 345 1000 c 1
EndSplineSet
Validated: 1
EndChar

StartChar: semicolon
Encoding: 59 59 43
Width: 500
VWidth: 0
Flags: W
HStem: -297 50<132.979 163.18> 0 192<218.881 300> 708 192<218.881 381.119>
VStem: 204 192<21.4815 177.119 722.881 885.119> 300 96<-102.873 0>
LayerCount: 3
Fore
SplineSet
204 804 m 3xf0
 204 858 246 900 300 900 c 3xe8
 354 900 396 858 396 804 c 3xf0
 396 750 354 708 300 708 c 3xe8
 246 708 204 750 204 804 c 3xf0
300 0 m 1
 246 0 204 42 204 96 c 3xf0
 204 150 246 192 300 192 c 3xe8
 354 192 396 150 396 96 c 3xf0
 396 -144 238 -265 139 -297 c 1
 118 -247 l 1
 208 -211 300 -115 300 0 c 1
EndSplineSet
Validated: 1
EndChar

StartChar: J
Encoding: 74 74 44
Width: 447
VWidth: 0
Flags: W
HStem: -591 125<-443 4.63774> 1546 20G<161 286>
VStem: 161 125<-302.891 1566>
LayerCount: 3
Back
SplineSet
143 1256 m 1xf0
 143 1310 186 1342 223 1342 c 3
 260 1342 304 1312 304 1256 c 3
 304 1203 260 1170 223 1170 c 3
 186 1170 143 1208 143 1256 c 1xf0
161 -291 m 2xe8
 161 1000 l 1
 286 1000 l 1
 286 -291 l 2
 286 -466 159 -591 -49 -591 c 2
 -187 -591 l 1
 -187 -466 l 1
 -49 -466 l 2
 44 -466 161 -417 161 -291 c 2xe8
EndSplineSet
Fore
SplineSet
286 0 m 2
 286 -466 159 -591 -305 -591 c 2
 -443 -591 l 1
 -443 -466 l 1
 -305 -466 l 2
 44 -466 161 -417 161 0 c 2
 161 1566 l 1
 286 1566 l 1
 286 0 l 2
EndSplineSet
Validated: 1
EndChar
